# xmcd
#
# Track frame offsets:
#	150
#	1500
#	5142
#	18652
#	32275
#	44215
#	59812
#	66605
#	73047
#	84137
#	90260
#	104890
#	122270
#	129367
#	143450
#	165585
#	174027
#	181030
#	194550
#	202927
#	212887
#	226700
#	239785
#	247852
#	259182
#	272802
#
# Disc length: 3765
#
# Revision: 1
# Processed by: cddbd v1.5.1PL0 Copyright (c) Steve Scherf et al.
# Submitted via: bergue.cddb.CddbMailer 1
# Normalized: r0:DSETVAR1
#
DISCID=610eb31a
DTITLE=Various Artist - Cowboy songs on Folkways
DYEAR=1900
DGENRE=
TTITLE0=Harry Jackson - Morning grub holler
TTITLE1=Harry Jackson - Round-up cook
TTITLE2=Tex-I-An Boys - Chisholm trail
TTITLE3=Woody Guthrie and Cisco Houston - Whoopie-Ti-Yi-Yo, Get Along little dog
TTITLE4=Cisco Houston - Little Joe the Wrangler
TTITLE5=Harry Jackson - Little Joe the Wrangler's Sister Nell
TTITLE6=Harry K. McClintock - Utah Carl
TTITLE7=Tex-I-An Boys - Put your little foot
TTITLE8=Peter LaFarge - Trail to Mexico
TTITLE9=Peter Hurd - Las Chapparreras
TTITLE10=Woody Guthrie - Buffalo Skinners
TTITLE11=Ray Reed - Zebra Dun
TTITLE12=Harry Jackson - Some Cowboy brag talk
TTITLE13=Roger Welsh - Horse Wrangler
TTITLE14=Harry Jackson - Strawberry Roan
TTITLE15=John A. Lomax - Texian Boys
TTITLE16=Leadbelly - Cow cow yicky yicky ya
TTITLE17=Woody Guthrie - Jesse James (Leadbelly's version)
TTITLE18=Pete Seeger - Home on the range
TTITLE19=Rosalie Sorrels - Empty cot in the bunkhouse tonight
TTITLE20=Leadbelly - Springime in the Rockies
TTITLE21=Dave Fredrickson - Lone star trail
TTITLE22=Peter LaFarge - Rodeo Hand
TTITLE23=Woody Guthrie and Cisco Houston - Philadelphia Lawyer
TTITLE24=Cisco Houston - The dying cowboy
TTITLE25=Hermes Nye - The devil made Texas
EXTD=Compiled and annotated by Guy Logsdon Smithsonian/Folkways CD SF 40043
EXTT0=
EXTT1=
EXTT2=
EXTT3=Whoopie-Ti-Yi-Yo, Get along little dogies
EXTT4=
EXTT5=
EXTT6=
EXTT7=
EXTT8=
EXTT9=
EXTT10=
EXTT11=
EXTT12=
EXTT13=
EXTT14=
EXTT15=
EXTT16=
EXTT17=
EXTT18=
EXTT19=
EXTT20=
EXTT21=
EXTT22=
EXTT23=
EXTT24=
EXTT25=
PLAYORDER=
